<mxfile host="Electron" agent="Mozilla/5.0 (Macintosh; Intel Mac OS X 10_15_7) AppleWebKit/537.36 (KHTML, like Gecko) draw.io/26.2.2 Chrome/134.0.6998.178 Electron/35.1.2 Safari/537.36" version="26.2.2">
  <diagram name="Page-1" id="IoX4amNwdEZZXgjaiEn2">
    <mxGraphModel dx="1580" dy="985" grid="1" gridSize="10" guides="1" tooltips="1" connect="1" arrows="1" fold="1" page="1" pageScale="1" pageWidth="827" pageHeight="1169" math="0" shadow="0">
      <root>
        <mxCell id="0" />
        <mxCell id="1" parent="0" />
        <mxCell id="FGNDSCWl6p4A-koqF6ui-56" value="" style="rounded=0;whiteSpace=wrap;html=1;fillColor=#fff2cc;strokeColor=#d6b656;opacity=25;" vertex="1" parent="1">
          <mxGeometry x="270" y="240" width="190" height="330" as="geometry" />
        </mxCell>
        <mxCell id="FGNDSCWl6p4A-koqF6ui-48" value="" style="rounded=0;whiteSpace=wrap;html=1;glass=0;fillColor=#fff2cc;strokeColor=#d6b656;opacity=25;" vertex="1" parent="1">
          <mxGeometry x="1300" y="400" width="170" height="205" as="geometry" />
        </mxCell>
        <mxCell id="FGNDSCWl6p4A-koqF6ui-47" value="" style="rounded=0;whiteSpace=wrap;html=1;glass=0;fillColor=#fff2cc;strokeColor=#d6b656;opacity=25;" vertex="1" parent="1">
          <mxGeometry x="1078" y="400" width="170" height="205" as="geometry" />
        </mxCell>
        <mxCell id="FGNDSCWl6p4A-koqF6ui-45" value="" style="rounded=0;whiteSpace=wrap;html=1;glass=0;fillColor=#fff2cc;strokeColor=#d6b656;opacity=25;" vertex="1" parent="1">
          <mxGeometry x="710" y="402.5" width="319" height="205" as="geometry" />
        </mxCell>
        <mxCell id="FGNDSCWl6p4A-koqF6ui-1" value="crawler 1" style="sketch=0;outlineConnect=0;fontColor=#232F3E;gradientColor=none;fillColor=#8C4FFF;strokeColor=none;dashed=0;verticalLabelPosition=bottom;verticalAlign=top;align=center;html=1;fontSize=12;fontStyle=0;aspect=fixed;pointerEvents=1;shape=mxgraph.aws4.glue_crawlers;" vertex="1" parent="1">
          <mxGeometry x="340" y="287.5" width="60" height="60" as="geometry" />
        </mxCell>
        <mxCell id="FGNDSCWl6p4A-koqF6ui-15" value="" style="edgeStyle=orthogonalEdgeStyle;rounded=0;orthogonalLoop=1;jettySize=auto;html=1;flowAnimation=1;fillColor=#d5e8d4;strokeColor=#000000;" edge="1" parent="1" source="FGNDSCWl6p4A-koqF6ui-4">
          <mxGeometry relative="1" as="geometry">
            <mxPoint x="340" y="297.5" as="targetPoint" />
          </mxGeometry>
        </mxCell>
        <mxCell id="FGNDSCWl6p4A-koqF6ui-4" value="" style="verticalLabelPosition=bottom;html=1;verticalAlign=top;align=center;strokeColor=none;fillColor=#00BEF2;shape=mxgraph.azure.website_generic;pointerEvents=1;" vertex="1" parent="1">
          <mxGeometry x="180" y="257.5" width="50" height="42.5" as="geometry" />
        </mxCell>
        <mxCell id="FGNDSCWl6p4A-koqF6ui-14" value="" style="edgeStyle=orthogonalEdgeStyle;rounded=0;orthogonalLoop=1;jettySize=auto;html=1;flowAnimation=1;" edge="1" parent="1" source="FGNDSCWl6p4A-koqF6ui-5" target="FGNDSCWl6p4A-koqF6ui-1">
          <mxGeometry relative="1" as="geometry" />
        </mxCell>
        <mxCell id="FGNDSCWl6p4A-koqF6ui-5" value="" style="verticalLabelPosition=bottom;html=1;verticalAlign=top;align=center;strokeColor=none;fillColor=#00BEF2;shape=mxgraph.azure.website_generic;pointerEvents=1;" vertex="1" parent="1">
          <mxGeometry x="180" y="327.5" width="50" height="42.5" as="geometry" />
        </mxCell>
        <mxCell id="FGNDSCWl6p4A-koqF6ui-17" value="crawler 2" style="sketch=0;outlineConnect=0;fontColor=#232F3E;gradientColor=none;fillColor=#8C4FFF;strokeColor=none;dashed=0;verticalLabelPosition=bottom;verticalAlign=top;align=center;html=1;fontSize=12;fontStyle=0;aspect=fixed;pointerEvents=1;shape=mxgraph.aws4.glue_crawlers;" vertex="1" parent="1">
          <mxGeometry x="340" y="407.5" width="60" height="60" as="geometry" />
        </mxCell>
        <mxCell id="FGNDSCWl6p4A-koqF6ui-18" value="" style="edgeStyle=orthogonalEdgeStyle;rounded=0;orthogonalLoop=1;jettySize=auto;html=1;flowAnimation=1;fillColor=#d5e8d4;strokeColor=#000000;" edge="1" parent="1" source="FGNDSCWl6p4A-koqF6ui-19">
          <mxGeometry relative="1" as="geometry">
            <mxPoint x="340" y="417.5" as="targetPoint" />
          </mxGeometry>
        </mxCell>
        <mxCell id="FGNDSCWl6p4A-koqF6ui-19" value="" style="verticalLabelPosition=bottom;html=1;verticalAlign=top;align=center;strokeColor=none;fillColor=#00BEF2;shape=mxgraph.azure.website_generic;pointerEvents=1;" vertex="1" parent="1">
          <mxGeometry x="180" y="377.5" width="50" height="42.5" as="geometry" />
        </mxCell>
        <mxCell id="FGNDSCWl6p4A-koqF6ui-20" value="" style="edgeStyle=orthogonalEdgeStyle;rounded=0;orthogonalLoop=1;jettySize=auto;html=1;flowAnimation=1;" edge="1" parent="1" source="FGNDSCWl6p4A-koqF6ui-21" target="FGNDSCWl6p4A-koqF6ui-17">
          <mxGeometry relative="1" as="geometry" />
        </mxCell>
        <mxCell id="FGNDSCWl6p4A-koqF6ui-21" value="" style="verticalLabelPosition=bottom;html=1;verticalAlign=top;align=center;strokeColor=none;fillColor=#00BEF2;shape=mxgraph.azure.website_generic;pointerEvents=1;" vertex="1" parent="1">
          <mxGeometry x="180" y="447.5" width="50" height="42.5" as="geometry" />
        </mxCell>
        <mxCell id="FGNDSCWl6p4A-koqF6ui-34" style="edgeStyle=orthogonalEdgeStyle;rounded=0;orthogonalLoop=1;jettySize=auto;html=1;entryX=0;entryY=0.5;entryDx=0;entryDy=0;flowAnimation=1;exitX=0.938;exitY=0.179;exitDx=0;exitDy=0;exitPerimeter=0;" edge="1" parent="1" source="FGNDSCWl6p4A-koqF6ui-27" target="FGNDSCWl6p4A-koqF6ui-33">
          <mxGeometry relative="1" as="geometry" />
        </mxCell>
        <mxCell id="FGNDSCWl6p4A-koqF6ui-51" style="edgeStyle=orthogonalEdgeStyle;rounded=0;orthogonalLoop=1;jettySize=auto;html=1;exitX=1.092;exitY=0.845;exitDx=0;exitDy=0;exitPerimeter=0;entryX=0;entryY=0.5;entryDx=0;entryDy=0;flowAnimation=1;" edge="1" parent="1" source="FGNDSCWl6p4A-koqF6ui-27" target="FGNDSCWl6p4A-koqF6ui-45">
          <mxGeometry relative="1" as="geometry" />
        </mxCell>
        <mxCell id="FGNDSCWl6p4A-koqF6ui-27" value="" style="shape=cylinder3;whiteSpace=wrap;html=1;boundedLbl=1;backgroundOutline=1;size=15;fillColor=#dae8fc;strokeColor=#6c8ebf;" vertex="1" parent="1">
          <mxGeometry x="540" y="220" width="30" height="340" as="geometry" />
        </mxCell>
        <mxCell id="FGNDSCWl6p4A-koqF6ui-28" style="edgeStyle=orthogonalEdgeStyle;rounded=0;orthogonalLoop=1;jettySize=auto;html=1;entryX=0;entryY=0;entryDx=0;entryDy=92.5;entryPerimeter=0;flowAnimation=1;" edge="1" parent="1" source="FGNDSCWl6p4A-koqF6ui-1" target="FGNDSCWl6p4A-koqF6ui-27">
          <mxGeometry relative="1" as="geometry">
            <mxPoint x="540" y="333.5" as="targetPoint" />
          </mxGeometry>
        </mxCell>
        <mxCell id="FGNDSCWl6p4A-koqF6ui-29" style="edgeStyle=orthogonalEdgeStyle;rounded=0;orthogonalLoop=1;jettySize=auto;html=1;entryX=0.067;entryY=0.641;entryDx=0;entryDy=0;entryPerimeter=0;flowAnimation=1;" edge="1" parent="1" source="FGNDSCWl6p4A-koqF6ui-17" target="FGNDSCWl6p4A-koqF6ui-27">
          <mxGeometry relative="1" as="geometry" />
        </mxCell>
        <mxCell id="FGNDSCWl6p4A-koqF6ui-33" value="URL Classifier" style="shape=process;whiteSpace=wrap;html=1;backgroundOutline=1;fillColor=#dae8fc;strokeColor=#6c8ebf;sketch=1;curveFitting=1;jiggle=2;" vertex="1" parent="1">
          <mxGeometry x="856.5" y="248.75" width="120" height="60" as="geometry" />
        </mxCell>
        <mxCell id="FGNDSCWl6p4A-koqF6ui-54" style="edgeStyle=orthogonalEdgeStyle;rounded=0;orthogonalLoop=1;jettySize=auto;html=1;exitX=0;exitY=0.5;exitDx=0;exitDy=0;exitPerimeter=0;flowAnimation=1;" edge="1" parent="1" source="FGNDSCWl6p4A-koqF6ui-35" target="FGNDSCWl6p4A-koqF6ui-1">
          <mxGeometry relative="1" as="geometry" />
        </mxCell>
        <mxCell id="FGNDSCWl6p4A-koqF6ui-55" value="Fetch list of websites&lt;div&gt;using locking mechanism&lt;/div&gt;" style="edgeLabel;html=1;align=center;verticalAlign=middle;resizable=0;points=[];" vertex="1" connectable="0" parent="FGNDSCWl6p4A-koqF6ui-54">
          <mxGeometry x="0.2699" y="1" relative="1" as="geometry">
            <mxPoint as="offset" />
          </mxGeometry>
        </mxCell>
        <mxCell id="FGNDSCWl6p4A-koqF6ui-35" value="Database" style="shape=cylinder3;whiteSpace=wrap;html=1;boundedLbl=1;backgroundOutline=1;size=15;fillColor=#d5e8d4;strokeColor=#82b366;sketch=1;curveFitting=1;jiggle=2;" vertex="1" parent="1">
          <mxGeometry x="510" y="50" width="60" height="80" as="geometry" />
        </mxCell>
        <mxCell id="FGNDSCWl6p4A-koqF6ui-36" value="product urls&lt;div&gt;non-product urls&lt;/div&gt;" style="edgeStyle=orthogonalEdgeStyle;rounded=0;orthogonalLoop=1;jettySize=auto;html=1;exitX=0.25;exitY=0;exitDx=0;exitDy=0;entryX=1;entryY=0.5;entryDx=0;entryDy=0;entryPerimeter=0;flowAnimation=1;" edge="1" parent="1" source="FGNDSCWl6p4A-koqF6ui-33" target="FGNDSCWl6p4A-koqF6ui-35">
          <mxGeometry x="0.0007" relative="1" as="geometry">
            <mxPoint as="offset" />
          </mxGeometry>
        </mxCell>
        <mxCell id="FGNDSCWl6p4A-koqF6ui-40" value="" style="edgeStyle=orthogonalEdgeStyle;rounded=0;orthogonalLoop=1;jettySize=auto;html=1;flowAnimation=1;" edge="1" parent="1" source="FGNDSCWl6p4A-koqF6ui-37" target="FGNDSCWl6p4A-koqF6ui-39">
          <mxGeometry relative="1" as="geometry" />
        </mxCell>
        <mxCell id="FGNDSCWl6p4A-koqF6ui-37" value="&lt;b&gt;&lt;font style=&quot;font-size: 14px;&quot;&gt;Data Ingestion&lt;/font&gt;&lt;/b&gt;&lt;div&gt;&lt;br&gt;&lt;/div&gt;&lt;div&gt;Cleanup&lt;/div&gt;&lt;div&gt;Sanitize&lt;/div&gt;" style="rounded=0;whiteSpace=wrap;html=1;fillColor=#f8cecc;strokeColor=#b85450;sketch=1;curveFitting=1;jiggle=2;" vertex="1" parent="1">
          <mxGeometry x="739" y="447.5" width="105" height="110" as="geometry" />
        </mxCell>
        <mxCell id="FGNDSCWl6p4A-koqF6ui-42" value="" style="edgeStyle=orthogonalEdgeStyle;rounded=0;orthogonalLoop=1;jettySize=auto;html=1;flowAnimation=1;" edge="1" parent="1" source="FGNDSCWl6p4A-koqF6ui-39" target="FGNDSCWl6p4A-koqF6ui-41">
          <mxGeometry relative="1" as="geometry" />
        </mxCell>
        <mxCell id="FGNDSCWl6p4A-koqF6ui-39" value="&lt;b&gt;&lt;font style=&quot;font-size: 14px;&quot;&gt;Data Preparation&lt;/font&gt;&lt;/b&gt;&lt;div&gt;&lt;br&gt;&lt;/div&gt;&lt;div&gt;Label dataset&lt;/div&gt;&lt;div&gt;Split for train/test&lt;/div&gt;" style="rounded=0;whiteSpace=wrap;html=1;sketch=1;curveFitting=1;jiggle=2;fillColor=#f8cecc;strokeColor=#b85450;" vertex="1" parent="1">
          <mxGeometry x="909" y="447.5" width="95" height="110" as="geometry" />
        </mxCell>
        <mxCell id="FGNDSCWl6p4A-koqF6ui-44" value="" style="edgeStyle=orthogonalEdgeStyle;rounded=0;orthogonalLoop=1;jettySize=auto;html=1;flowAnimation=1;" edge="1" parent="1" source="FGNDSCWl6p4A-koqF6ui-41" target="FGNDSCWl6p4A-koqF6ui-43">
          <mxGeometry relative="1" as="geometry" />
        </mxCell>
        <mxCell id="FGNDSCWl6p4A-koqF6ui-41" value="&lt;b&gt;&lt;font style=&quot;font-size: 14px;&quot;&gt;Experiments&lt;/font&gt;&lt;/b&gt;&lt;div&gt;Training&lt;/div&gt;&lt;div&gt;Vectorization&lt;/div&gt;" style="rounded=0;whiteSpace=wrap;html=1;fillColor=#f8cecc;strokeColor=#b85450;sketch=1;curveFitting=1;jiggle=2;" vertex="1" parent="1">
          <mxGeometry x="1113" y="447.5" width="105" height="110" as="geometry" />
        </mxCell>
        <mxCell id="FGNDSCWl6p4A-koqF6ui-43" value="&lt;font style=&quot;font-size: 14px;&quot;&gt;Model Deployment&lt;/font&gt;&lt;div&gt;&lt;br&gt;&lt;/div&gt;" style="rounded=0;whiteSpace=wrap;html=1;sketch=1;curveFitting=1;jiggle=2;fillColor=#f8cecc;strokeColor=#b85450;" vertex="1" parent="1">
          <mxGeometry x="1332.5" y="447.5" width="105" height="110" as="geometry" />
        </mxCell>
        <mxCell id="FGNDSCWl6p4A-koqF6ui-46" value="Data Processing" style="text;html=1;align=center;verticalAlign=middle;whiteSpace=wrap;rounded=0;fontStyle=1" vertex="1" parent="1">
          <mxGeometry x="809" y="402.5" width="130" height="30" as="geometry" />
        </mxCell>
        <mxCell id="FGNDSCWl6p4A-koqF6ui-49" value="Model Development" style="text;html=1;align=center;verticalAlign=middle;whiteSpace=wrap;rounded=0;fontStyle=1" vertex="1" parent="1">
          <mxGeometry x="1098" y="402.5" width="130" height="30" as="geometry" />
        </mxCell>
        <mxCell id="FGNDSCWl6p4A-koqF6ui-52" style="edgeStyle=orthogonalEdgeStyle;rounded=0;orthogonalLoop=1;jettySize=auto;html=1;flowAnimation=1;entryX=1;entryY=0.5;entryDx=0;entryDy=0;" edge="1" parent="1" source="FGNDSCWl6p4A-koqF6ui-50" target="FGNDSCWl6p4A-koqF6ui-33">
          <mxGeometry relative="1" as="geometry">
            <mxPoint x="840" y="320" as="targetPoint" />
            <Array as="points">
              <mxPoint x="1346" y="279" />
            </Array>
          </mxGeometry>
        </mxCell>
        <mxCell id="FGNDSCWl6p4A-koqF6ui-50" value="Model Registry" style="text;html=1;align=center;verticalAlign=middle;whiteSpace=wrap;rounded=0;fontStyle=1" vertex="1" parent="1">
          <mxGeometry x="1321" y="402.5" width="130" height="30" as="geometry" />
        </mxCell>
        <mxCell id="FGNDSCWl6p4A-koqF6ui-53" value="&lt;b&gt;Event Bus&lt;/b&gt;&lt;div&gt;This will help scale.&amp;nbsp;&lt;/div&gt;&lt;div&gt;&lt;span style=&quot;background-color: transparent; color: light-dark(rgb(0, 0, 0), rgb(255, 255, 255));&quot;&gt;Crawlers and&amp;nbsp;&lt;/span&gt;&lt;span style=&quot;background-color: transparent; color: light-dark(rgb(0, 0, 0), rgb(255, 255, 255));&quot;&gt;classifiers&lt;/span&gt;&lt;span style=&quot;background-color: transparent; color: light-dark(rgb(0, 0, 0), rgb(255, 255, 255));&quot;&gt;&amp;nbsp;can scale independently&amp;nbsp;&amp;nbsp;&lt;/span&gt;&lt;/div&gt;" style="text;html=1;align=center;verticalAlign=middle;whiteSpace=wrap;rounded=0;" vertex="1" parent="1">
          <mxGeometry x="475" y="560" width="160" height="100" as="geometry" />
        </mxCell>
        <mxCell id="FGNDSCWl6p4A-koqF6ui-57" value="&lt;b&gt;Site Crawlers&lt;/b&gt;&lt;div&gt;1. Sitemap.xml&lt;/div&gt;&lt;div&gt;2.&amp;nbsp; Playwright&lt;/div&gt;" style="text;html=1;align=left;verticalAlign=middle;whiteSpace=wrap;rounded=0;" vertex="1" parent="1">
          <mxGeometry x="278" y="530" width="130" height="30" as="geometry" />
        </mxCell>
        <mxCell id="FGNDSCWl6p4A-koqF6ui-58" value="" style="shape=cylinder3;whiteSpace=wrap;html=1;boundedLbl=1;backgroundOutline=1;size=15;fillColor=#dae8fc;strokeColor=#6c8ebf;rotation=90;" vertex="1" parent="1">
          <mxGeometry x="1188" y="50" width="30" height="110" as="geometry" />
        </mxCell>
        <mxCell id="FGNDSCWl6p4A-koqF6ui-59" style="edgeStyle=orthogonalEdgeStyle;rounded=0;orthogonalLoop=1;jettySize=auto;html=1;exitX=0.75;exitY=0;exitDx=0;exitDy=0;entryX=0.5;entryY=1;entryDx=0;entryDy=0;entryPerimeter=0;flowAnimation=1;" edge="1" parent="1" source="FGNDSCWl6p4A-koqF6ui-33" target="FGNDSCWl6p4A-koqF6ui-58">
          <mxGeometry relative="1" as="geometry" />
        </mxCell>
        <mxCell id="FGNDSCWl6p4A-koqF6ui-60" value="&lt;b&gt;Dead Letter Queue&lt;/b&gt;&lt;div&gt;For unclassified urls&lt;/div&gt;" style="text;html=1;align=center;verticalAlign=middle;whiteSpace=wrap;rounded=0;" vertex="1" parent="1">
          <mxGeometry x="1137" y="120" width="132" height="50" as="geometry" />
        </mxCell>
      </root>
    </mxGraphModel>
  </diagram>
</mxfile>
